# xmcd
#
# Track frame offsets:
#	150
#	9870
#	20537
#	34300
#	44926
#	56682
#	68937
#	79605
#	91367
#	103490
#	114317
#	125356
#	137107
#	150852
#	163119
#	173193
#	185661
#	195540
#	204836
#	214590
#	227838
#	239887
#	250480
#	262292
#	275503
#
# Disc length: 3835 seconds
#
# Revision: 0
# Processed by: cddbd v1.5.2PL0 Copyright (c) Steve Scherf et al.
# Submitted via: audiograbber 1.83.01
#
DISCID=720ef919
DTITLE=Various Artist - Country's Greatest Hits CD2
DYEAR=2008
DGENRE=Country
TTITLE0=June Carter and Carl Smith - Time a'wastin'
TTITLE1=Johnny Cash - Train of love
TTITLE2=Patsy Cline - A church, a courtroom and then goodbye
TTITLE3=Jim Reeves - Where does a broken heart go?
TTITLE4=Marty Robbins - Cryin' cause I love you
TTITLE5=Slim Whitman - North wind
TTITLE6=Faron Young - Foolish heart
TTITLE7=Wanda Jackson - Silver threads and golden needles
TTITLE8=Ray Prize - Release me
TTITLE9=Waylon Jennings - (That's what you get) For lovin' me
TTITLE10=Hank Williams - I'll never get out of this world alive
TTITLE11=Bill Monroe an his Blue Grass Boys - Raw hide
TTITLE12=Stanley Brothers - The angels are singing (In heaven tonight)
TTITLE13=Kitty Wells - Love and hate
TTITLE14=Chet Atkins - Corrine, Corrina
TTITLE15=Hank Snow - The golden rocket
TTITLE16=Eddy Arnold - I wanna play house with you
TTITLE17=Lefty Frizzell - Just can't live that fast (any more)
TTITLE18=Carl Perkins - Movie Magg
TTITLE19=Little Jimmy Dickens - Country boy
TTITLE20=Red Foley - Tennessee saturday night
TTITLE21=Jimmy Newman - Diggy Liggy Lo
TTITLE22=Mercer Brothers - It ain't no use
TTITLE23=Willie Nelson - I just don't understand
TTITLE24=Dolly Parton - Letter to heaven
EXTD=
EXTT0=
EXTT1=
EXTT2=
EXTT3=
EXTT4=
EXTT5=
EXTT6=
EXTT7=
EXTT8=
EXTT9=
EXTT10=
EXTT11=
EXTT12=
EXTT13=
EXTT14=
EXTT15=
EXTT16=
EXTT17=
EXTT18=
EXTT19=
EXTT20=
EXTT21=
EXTT22=
EXTT23=
EXTT24=
PLAYORDER=
